<?xml version="1.0" encoding="UTF-8"?>
<svg id="_Слой_1" data-name="Слой 1" xmlns="http://www.w3.org/2000/svg" viewBox="0 0 146.847 84.823">
  <defs>
    <style>
      .cls-1 {
        fill: #e55225;
      }

      .cls-2 {
        fill: #f9aa19;
      }
    </style>
  </defs>
  <g>
    <path class="cls-2" d="m82.482,10.147c.056.41.096.826.096,1.252,0,5.056-4.098,9.154-9.154,9.154-4.977,0-9.017-3.974-9.142-8.921h-.012v-5.816H.21c-.139,1.843-.21,3.705-.21,5.583,0,40.551,32.873,73.424,73.424,73.424S146.847,51.95,146.847,11.399c0-1.878-.071-3.74-.21-5.583h-64.155v4.331Z"/>
    <path class="cls-2" d="m64.27,11.632h.012c-.002-.078-.012-.154-.012-.233v.233Z"/>
  </g>
  <ellipse class="cls-1" cx="32.241" cy="5.816" rx="32.097" ry="5.816"/>
  <ellipse class="cls-1" cx="114.618" cy="5.816" rx="32.138" ry="5.816"/>
</svg>