<svg id="Слой_1" data-name="Слой 1" xmlns="http://www.w3.org/2000/svg" viewBox="0 0 570.58 120.61"><defs><style>.cls-1{fill:#339753;}.cls-2{fill:#ea7cb0;}.cls-3{fill:#f9aa19;}.cls-4{fill:#eed9a7;}.cls-5{fill:#e55225;}.cls-6{fill:#b31f6f;}.cls-7{fill:#049a49;}.cls-8{fill:#50b248;}</style></defs><path class="cls-1" d="M826,506.37c-19.7,2-24.65,24.88-20.48,40.94,1.82,7,12.72,4.05,10.89-3-2.3-8.85-1.67-25,10.15-26.7,4.63-.68,8.32,3,10,7,2.56,6.13.67,13.17-1.3,19.16-2.28,6.92,8.63,9.89,10.89,3,3-9.13,4.38-19.13.07-28.09C842.49,511.06,834.58,505.49,826,506.37Z" transform="translate(-674.17 -479.69)"/><path class="cls-2" d="M888.48,520.5c-2.94-6.13-7.22-13.43-15-13.43s-11.58,6.93-14.24,13.06a122.86,122.86,0,0,0-7.65,24c-1.46,7.09,9.42,10.13,10.89,3a116.48,116.48,0,0,1,4.92-17.3c.73-2,3.73-11.46,6.08-11.56s5.71,8.88,6.53,10.7a113,113,0,0,1,5.8,16.61c1.9,7,12.79,4,10.89-3A128.35,128.35,0,0,0,888.48,520.5Z" transform="translate(-674.17 -479.69)"/><path class="cls-1" d="M1143.76,519.08c-2.8-6-7.23-12.9-14.76-12.64-7.37.26-11.27,6.94-14,12.89a122.92,122.92,0,0,0-8.09,23.89c-1.6,7.08,9.28,10.1,10.89,3a115.06,115.06,0,0,1,5.26-17.21,73.25,73.25,0,0,1,3.49-7.72c.5-.94,1.51-3.25,2.82-3.59-.2.08.33.22.51.35a8.29,8.29,0,0,1,2.08,2.69,65.82,65.82,0,0,1,3.62,7.58,118,118,0,0,1,5.57,17c1.76,7,12.66,4.06,10.89-3A127.73,127.73,0,0,0,1143.76,519.08Z" transform="translate(-674.17 -479.69)"/><path class="cls-3" d="M937.33,519.81c-2.85-5.95-7.07-13.51-14.72-13.2-7.31.29-11.35,8-14.22,13.75a75.93,75.93,0,0,0-7.21,22.09c-.49,3,.78,6.08,3.94,6.95,2.7.74,6.46-.92,7-3.94a68.71,68.71,0,0,1,4.51-16.1,66.06,66.06,0,0,1,3.28-6.51c.56-1,2.22-4.53,3.25-4.94a3.44,3.44,0,0,1,.45.62c.53.89,1.23,1.71,1.75,2.62a66.72,66.72,0,0,1,3.45,6.93,72.44,72.44,0,0,1,4.58,16.53c.49,3,4.23,4.69,6.95,3.94,3.2-.88,4.43-3.92,3.94-6.94A79.59,79.59,0,0,0,937.33,519.81Zm-14.25-1.92c-.35,0-.31-.28,0,0Z" transform="translate(-674.17 -479.69)"/><path class="cls-3" d="M919.21,528.13a6.88,6.88,0,0,0-3,3.44A5,5,0,0,0,915,535a8.82,8.82,0,0,0,1,3.59A7.51,7.51,0,0,0,918,541a8,8,0,0,0,6.54,1.53,7.41,7.41,0,0,0,4.78-3.46,8.33,8.33,0,0,0,1-6C929.36,528.18,923.4,525.81,919.21,528.13Zm6.84,5.69.05.1,0,.4C926.12,534.15,926.09,534,926.05,533.82Z" transform="translate(-674.17 -479.69)"/><path class="cls-3" d="M1093.6,539.14c4.26-8.16,3.52-17.44,2.41-26.26-.38-3-2.32-5.64-5.65-5.64-2.75,0-6,2.6-5.65,5.64.78,6.17,2,13.14-.25,19.15-1.33,3.59-4.65,7.76-8.87,7.67s-7.07-4.42-8-8.13c-1.63-6.33.77-13.17,2.59-19.19,2.11-7-8.79-10-10.89-3-2.6,8.6-5.22,18.28-2,27.09,2.77,7.57,9,13.83,17.33,14.48,6,.46,11.65-2.57,15.63-7l2-2.62A20.88,20.88,0,0,0,1093.6,539.14Z" transform="translate(-674.17 -479.69)"/><path class="cls-3" d="M1103.09,540.6a7.11,7.11,0,0,0-10.42-4.13,7.26,7.26,0,0,0-.63.46l-1.89,2.43a6.39,6.39,0,0,0-.37,1,5.6,5.6,0,0,0-.57,4c.82,3.88,5.25,6.24,9,5.22A7.31,7.31,0,0,0,1103.09,540.6Z" transform="translate(-674.17 -479.69)"/><path class="cls-2" d="M1190.05,539.14c4.26-8.16,3.52-17.44,2.41-26.26-.39-3-2.33-5.64-5.65-5.64-2.76,0-6,2.6-5.65,5.64.78,6.17,2,13.14-.26,19.15-1.32,3.59-4.65,7.76-8.86,7.67s-7.07-4.42-8-8.13c-1.64-6.33.77-13.17,2.59-19.19,2.1-7-8.79-10-10.89-3-2.6,8.6-5.22,18.28-2,27.09,2.77,7.57,9,13.83,17.33,14.48,6,.46,11.65-2.57,15.62-7l2-2.62A20.88,20.88,0,0,0,1190.05,539.14Z" transform="translate(-674.17 -479.69)"/><path class="cls-2" d="M1199.54,540.6a7.11,7.11,0,0,0-10.42-4.13,7.26,7.26,0,0,0-.63.46l-1.89,2.43a6.42,6.42,0,0,0-.38,1,5.54,5.54,0,0,0-.56,4c.82,3.88,5.25,6.24,9,5.22A7.32,7.32,0,0,0,1199.54,540.6Z" transform="translate(-674.17 -479.69)"/><path class="cls-3" d="M1219.63,524.4a7.38,7.38,0,0,0-3.13,4.17,6,6,0,0,0-.61,4.32c.89,4.2,5.67,6.74,9.69,5.65a7.91,7.91,0,0,0,5.3-9.69A7.67,7.67,0,0,0,1219.63,524.4Z" transform="translate(-674.17 -479.69)"/><path class="cls-1" d="M984.37,533.07c-2.86-1.67-5.93-.44-7.73,2-5.84,8-18.78,3.61-19-6.08a10.87,10.87,0,0,1,6.78-10c4.52-1.74,9.31.19,12.33,3.69,4.75,5.52,12.71-2.5,8-8a22.21,22.21,0,0,0-24.66-6.08c-8.34,3.37-14.29,12.25-13.69,21.35a22.39,22.39,0,0,0,15.82,19.86c9.25,2.62,18.69-1.5,24.19-9C988.19,538.34,986.81,534.5,984.37,533.07Z" transform="translate(-674.17 -479.69)"/><path class="cls-2" d="M1045.22,510.6c-7.29-6.59-18.27-5.37-24.38,1.09a14.86,14.86,0,0,0-11.74-4.32c-7.86.76-13.29,7.58-15.39,14.73-2.35,8-.85,16.47.68,24.45,1.37,7.13,12.25,4.11,10.89-3-1-5.09-2-10.46-1.32-15.66.43-3.08,2.41-9.55,6.59-9.36,4.62.22,5.62,7.14,5.76,10.48.26,6-.32,11.9,1.1,17.85,1.72,7.17,12.09,4,10.89-3l-.21-1.23a3.77,3.77,0,0,0-.14-.58c-.94-5.78,0-11.77-.76-17.57a3.94,3.94,0,0,0,.23-.85c.42-2.86,1.87-5.72,5-6.24a6.33,6.33,0,0,1,6.7,3.73c3.21,6.88-1.11,15.62-2.27,22.51-.51,3,.79,6.08,3.94,6.95,2.71.74,6.43-.92,7-3.95C1049.76,534.88,1055.87,520.23,1045.22,510.6Z" transform="translate(-674.17 -479.69)"/><path class="cls-3" d="M1203.55,511.44q.9,17.54.83,35.09c0,7.27,11.27,7.28,11.3,0q.06-17.55-.84-35.09C1214.47,504.21,1203.17,504.17,1203.55,511.44Z" transform="translate(-674.17 -479.69)"/><path class="cls-3" d="M1244.63,545a190.34,190.34,0,0,1-2.74-33.45c0-7.27-11.27-7.28-11.3,0a208.16,208.16,0,0,0,3.15,36.45c.53,3,4.21,4.7,7,3.94C1243.87,551.1,1245.16,548,1244.63,545Z" transform="translate(-674.17 -479.69)"/><circle class="cls-4" cx="53.16" cy="67.46" r="53.16"/><circle class="cls-1" cx="76.01" cy="18.17" r="18.17"/><path class="cls-3" d="M732.36,541a5.21,5.21,0,0,1,0,.69,5,5,0,0,1-10,.12h0v-3.18h-35.1c-.07,1-.11,2-.11,3.06a40.23,40.23,0,0,0,80.45,0q0-1.55-.12-3.06H732.36Z" transform="translate(-674.17 -479.69)"/><path class="cls-3" d="M722.38,541.82h0v0Z" transform="translate(-674.17 -479.69)"/><ellipse class="cls-5" cx="30.66" cy="58.94" rx="17.58" ry="3.19"/><ellipse class="cls-5" cx="75.79" cy="58.94" rx="17.61" ry="3.19"/><path class="cls-2" d="M686.56,516a19.93,19.93,0,0,0-.24,3,18.86,18.86,0,1,0,37.47-3Z" transform="translate(-674.17 -479.69)"/><ellipse class="cls-6" cx="31.11" cy="36.34" rx="18.7" ry="1.29"/><circle class="cls-7" cx="30.58" cy="18.17" r="18.17"/><circle class="cls-8" cx="37.65" cy="10.83" r="5.41"/><path class="cls-2" d="M731.35,516a18.86,18.86,0,1,0,37.22,0Z" transform="translate(-674.17 -479.69)"/><ellipse class="cls-6" cx="75.9" cy="36.34" rx="18.7" ry="1.29"/><circle class="cls-7" cx="75.37" cy="18.17" r="18.17"/><circle class="cls-8" cx="82.44" cy="10.83" r="5.41"/><path class="cls-3" d="M823.51,576.8c0,3.15-.79,5.47-2.41,6.93s-3.88,2.07-7.09,2.07a16.16,16.16,0,0,1-7.54-1.78l1.65-3.63a11.44,11.44,0,0,0,5.76,1.56c3.24,0,4.86-1.56,4.86-4.64v-.83a7,7,0,0,1-5.56,2.77,7.23,7.23,0,0,1-5.5-2.26,8.13,8.13,0,0,1-2.07-5.69v-.07a8,8,0,0,1,2.1-5.66,7.08,7.08,0,0,1,5.47-2.29,7.24,7.24,0,0,1,5.5,2.55V563.6h4.83Zm-4.77-5.5v-.07a4.16,4.16,0,0,0-8.3,0v.07a3.86,3.86,0,0,0,4.14,3.94A3.92,3.92,0,0,0,818.74,571.3Z" transform="translate(-674.17 -479.69)"/><path class="cls-3" d="M843.74,572.6c0,.22,0,.6-.06,1.21H831.82a3.84,3.84,0,0,0,4.16,3.34,5.88,5.88,0,0,0,4.14-1.75l2.76,2.45a8.47,8.47,0,0,1-7,3.18,8.91,8.91,0,0,1-6.43-2.45,8.66,8.66,0,0,1-2.48-6.36v-.07a9,9,0,0,1,2.36-6.29,7.91,7.91,0,0,1,6.07-2.58,7.62,7.62,0,0,1,6.23,2.71,9.94,9.94,0,0,1,2.07,6.55ZM839,570.79a4.89,4.89,0,0,0-1.08-2.58,3.2,3.2,0,0,0-2.51-1.05c-2,0-3.28,1.21-3.69,3.63Z" transform="translate(-674.17 -479.69)"/><path class="cls-3" d="M861,567.73h-5.09v12.92h-4.8V567.73h-4.77V563.6H861Z" transform="translate(-674.17 -479.69)"/><path class="cls-3" d="M879.3,577.91a9.05,9.05,0,0,1-7,3.12,8.65,8.65,0,0,1-8.87-8.81v-.07a8.53,8.53,0,0,1,2.57-6.32,8.75,8.75,0,0,1,6.36-2.55,8.66,8.66,0,0,1,6.81,2.87l-3,3.17a5.29,5.29,0,0,0-3.88-1.87,3.71,3.71,0,0,0-3,1.4,4.93,4.93,0,0,0-1.14,3.24v.06a4.83,4.83,0,0,0,1.14,3.31,4.05,4.05,0,0,0,3.18,1.4,5.71,5.71,0,0,0,3.92-1.81Z" transform="translate(-674.17 -479.69)"/><path class="cls-3" d="M899,580.65h-5.53l-4.46-7-1.68,1.78v5.19h-4.84v-17h4.84v6.2l5.66-6.2h5.79l-6.49,6.71Z" transform="translate(-674.17 -479.69)"/><path class="cls-3" d="M916.89,580.65h-4.84v-9.16l-5.94,9.16h-4.84V563.57h4.84v9.51l5.94-9.51h4.84Z" transform="translate(-674.17 -479.69)"/><path class="cls-3" d="M936.7,580.65h-4.83v-9.16l-6,9.16h-4.84V563.57h4.84v9.51l6-9.51h4.83Zm-3.4-24.14c-.48,2.42-1.85,3.66-4.14,3.72a4.21,4.21,0,0,1-3.31-1.27,3.34,3.34,0,0,1-.89-2.45h1.78c.16,1,1,1.59,2.39,1.59a2.69,2.69,0,0,0,1.91-.64,2.12,2.12,0,0,0,.44-1Z" transform="translate(-674.17 -479.69)"/><path class="cls-3" d="M967.58,576.8c0,3.15-.8,5.47-2.42,6.93s-3.88,2.07-7.09,2.07a16.16,16.16,0,0,1-7.54-1.78l1.66-3.63a11.41,11.41,0,0,0,5.75,1.56c3.25,0,4.87-1.56,4.87-4.64v-.83a7,7,0,0,1-5.57,2.77,7.24,7.24,0,0,1-5.5-2.26,8.13,8.13,0,0,1-2.07-5.69v-.07a8,8,0,0,1,2.1-5.66,7.09,7.09,0,0,1,5.47-2.29,7.22,7.22,0,0,1,5.5,2.55V563.6h4.84Zm-4.77-5.5v-.07a4.16,4.16,0,0,0-8.3,0v.07a3.86,3.86,0,0,0,4.13,3.94A3.92,3.92,0,0,0,962.81,571.3Z" transform="translate(-674.17 -479.69)"/><path class="cls-3" d="M989.52,572.15a8.26,8.26,0,0,1-2.7,6.36,9.79,9.79,0,0,1-13.07,0,8.35,8.35,0,0,1-2.67-6.33v-.07a8.38,8.38,0,0,1,2.73-6.39,9.77,9.77,0,0,1,13,0,8.24,8.24,0,0,1,2.67,6.3Zm-4.77.07v-.07a4.68,4.68,0,0,0-1.27-3.33,4.1,4.1,0,0,0-3.21-1.37,4.33,4.33,0,0,0-4.42,4.64v.06a4.8,4.8,0,0,0,1.24,3.34,4.21,4.21,0,0,0,3.24,1.37A4.33,4.33,0,0,0,984.75,572.22Z" transform="translate(-674.17 -479.69)"/><path class="cls-3" d="M1008,577.91a9,9,0,0,1-7,3.12,8.66,8.66,0,0,1-8.88-8.81v-.07a8.51,8.51,0,0,1,2.58-6.32,8.75,8.75,0,0,1,6.36-2.55,8.63,8.63,0,0,1,6.8,2.87l-2.95,3.17a5.31,5.31,0,0,0-3.88-1.87,3.7,3.7,0,0,0-3,1.4,4.94,4.94,0,0,0-1.15,3.24v.06a4.83,4.83,0,0,0,1.15,3.31,4,4,0,0,0,3.18,1.4,5.69,5.69,0,0,0,3.91-1.81Z" transform="translate(-674.17 -479.69)"/><path class="cls-3" d="M1027.4,563.6l-6.55,17.46a9.87,9.87,0,0,1-2,3.47,5.05,5.05,0,0,1-3.63,1.3,8.16,8.16,0,0,1-4.29-1.18l1.62-3.5a4,4,0,0,0,2.07.67,1.77,1.77,0,0,0,1.68-1.11l-6.68-17.11h5.12l3.88,11.61,3.72-11.61Z" transform="translate(-674.17 -479.69)"/><path class="cls-3" d="M1042.5,567.73H1035l0,12.92h-4.8l0-17h12.27Z" transform="translate(-674.17 -479.69)"/><path class="cls-3" d="M1063.62,572.15a8.26,8.26,0,0,1-2.7,6.36,9.79,9.79,0,0,1-13.07,0,8.35,8.35,0,0,1-2.67-6.33v-.07a8.38,8.38,0,0,1,2.73-6.39,9.77,9.77,0,0,1,13,0,8.24,8.24,0,0,1,2.67,6.3Zm-4.77.07v-.07a4.68,4.68,0,0,0-1.27-3.33,4.1,4.1,0,0,0-3.21-1.37,4.33,4.33,0,0,0-4.42,4.64v.06a4.8,4.8,0,0,0,1.24,3.34,4.21,4.21,0,0,0,3.24,1.37A4.33,4.33,0,0,0,1058.85,572.22Z" transform="translate(-674.17 -479.69)"/><path class="cls-3" d="M1083.53,575.94a4,4,0,0,1-2.39,3.78,10.57,10.57,0,0,1-4.7.93h-9.32v-17h9.09a8.64,8.64,0,0,1,4.17.89,3.69,3.69,0,0,1,2.1,3.44V568a4,4,0,0,1-2.48,3.69c2.35.82,3.53,2.22,3.53,4.23Zm-5.82-7.32v-.06a1,1,0,0,0-.86-1,10.37,10.37,0,0,0-2.19-.13h-2.83v2.67h2.54a9.89,9.89,0,0,0,2.1-.16C1077.3,569.74,1077.71,569.29,1077.71,568.62Zm1,6.81v-.22c0-.89-1.15-1.34-3.4-1.34h-3.53v2.83h3.65C1077.68,576.7,1078.76,576.29,1078.76,575.43Z" transform="translate(-674.17 -479.69)"/><path class="cls-3" d="M1103.34,575c0,3.78-2.35,5.66-7.09,5.66h-9.32v-17h4.84v5.57h4.64a8,8,0,0,1,4.86,1.36,5.26,5.26,0,0,1,2.07,4.42Zm-4.77.12v-.54c0-.89-1.14-1.33-3.4-1.33h-3.44v3.46h3.57C1097.49,576.7,1098.57,576.16,1098.57,575.11Zm10.59,5.54h-4.83v-17h4.83Z" transform="translate(-674.17 -479.69)"/><path class="cls-3" d="M1128.56,580.65h-4.83v-9.16l-6,9.16H1113V563.57h4.83v9.51l6-9.51h4.83Zm-3.4-24.14c-.48,2.42-1.85,3.66-4.14,3.72a4.21,4.21,0,0,1-3.3-1.27,3.3,3.3,0,0,1-.89-2.45h1.78c.16,1,1,1.59,2.38,1.59a2.67,2.67,0,0,0,1.91-.64,2.1,2.1,0,0,0,.45-1Z" transform="translate(-674.17 -479.69)"/><path class="cls-3" d="M1161.25,585H1157v-4.35H1142.3v-17h4.83v12.69h5.95V563.6h4.83v12.88h3.34Z" transform="translate(-674.17 -479.69)"/><path class="cls-3" d="M1180.72,572.6c0,.22,0,.6-.07,1.21h-11.86a3.86,3.86,0,0,0,4.17,3.34,5.88,5.88,0,0,0,4.13-1.75l2.77,2.45a8.47,8.47,0,0,1-7,3.18,8.88,8.88,0,0,1-6.42-2.45,8.66,8.66,0,0,1-2.48-6.36v-.07a9,9,0,0,1,2.35-6.29,7.93,7.93,0,0,1,6.08-2.58,7.62,7.62,0,0,1,6.23,2.71,9.94,9.94,0,0,1,2.07,6.55Zm-4.71-1.81a5.05,5.05,0,0,0-1.08-2.58,3.22,3.22,0,0,0-2.51-1.05c-2,0-3.28,1.21-3.69,3.63Z" transform="translate(-674.17 -479.69)"/><path class="cls-3" d="M1195.09,574.06h-5.95v6.59h-4.83v-17l4.83,0v6h5.95v-6l4.84,0v17h-4.84Z" transform="translate(-674.17 -479.69)"/><path class="cls-3" d="M1217.8,567.73h-5.09v12.92h-4.8V567.73h-4.77V563.6h14.66Z" transform="translate(-674.17 -479.69)"/><path class="cls-3" d="M1239,572.15a9.49,9.49,0,0,1-2,6.17,7,7,0,0,1-5.75,2.64,6.66,6.66,0,0,1-5.31-2.54v7.31h-4.84V563.6h4.84v2.45a6.29,6.29,0,0,1,5.31-2.77A7,7,0,0,1,1237,566a9.43,9.43,0,0,1,2,6.14Zm-4.84,0v-.06a5,5,0,0,0-1.14-3.31,4,4,0,0,0-6,0,5.17,5.17,0,0,0-1.12,3.31v.06a4.92,4.92,0,0,0,1.09,3.28,4,4,0,0,0,6.13,0A5,5,0,0,0,1234.14,572.15Z" transform="translate(-674.17 -479.69)"/></svg>