<?xml version="1.0" encoding="UTF-8"?>
<svg id="_Слой_1" data-name="Слой 1" xmlns="http://www.w3.org/2000/svg" viewBox="0 0 106.31135 120.613652">
  <defs>
    <style>
      .cls-1 {
        fill: #df4613;
      }

      .cls-2 {
        fill: #f7ab00;
      }

      .cls-3 {
        fill: #369449;
      }

      .cls-4 {
        fill: #ea7aad;
      }

      .cls-5 {
        fill: #f3dfad;
      }

      .cls-6 {
        fill: #4faa33;
      }

      .cls-7 {
        fill: #b61667;
      }

      .cls-8 {
        fill: #009339;
      }
    </style>
  </defs>
  <circle class="cls-5" cx="53.155675" cy="67.457977" r="53.155675"/>
  <circle class="cls-3" cx="76.012529" cy="18.172337" r="18.172337"/>
  <g>
    <path class="cls-2" d="m58.182751,61.31727c.030837.22487.052333.452687.052333.686046,0,2.769783-2.245341,5.015146-5.015146,5.015146-2.726726,0-4.940379-2.177295-5.008708-4.887587h-.006438v-3.186461H13.108501c-.075924,1.009733-.11501,2.029746-.11501,3.058902,0,22.216449,18.009998,40.226469,40.226447,40.226469s40.226469-18.010019,40.226469-40.226469c0-1.029156-.039086-2.049169-.11501-3.058902h-35.148645v2.372856Z"/>
    <path class="cls-2" d="m48.204792,62.130875h.006438c-.001069-.042796-.006438-.084501-.006438-.127559v.127559Z"/>
  </g>
  <ellipse class="cls-1" cx="30.657155" cy="58.944414" rx="17.584733" ry="3.186469"/>
  <ellipse class="cls-1" cx="75.78931" cy="58.944414" rx="17.607365" ry="3.186469"/>
  <g>
    <path class="cls-4" d="m12.390339,36.344661c-.157937.982192-.242984,1.988739-.242984,3.015473,0,10.41334,8.441667,18.855007,18.854985,18.855007s18.855007-8.441667,18.855007-18.855007c0-1.026734-.085046-2.033281-.242984-3.015473H12.390339Z"/>
    <ellipse class="cls-7" cx="31.110777" cy="36.344674" rx="18.701427" ry="1.286525"/>
  </g>
  <g>
    <circle class="cls-8" cx="30.581687" cy="18.172337" r="18.172337"/>
    <circle class="cls-6" cx="37.65324" cy="10.833154" r="5.406692"/>
  </g>
  <g>
    <path class="cls-4" d="m57.177297,36.344661c-.157937.982192-.242984,1.988739-.242984,3.015473,0,10.41334,8.441667,18.855007,18.854985,18.855007s18.855007-8.441667,18.855007-18.855007c0-1.026734-.085046-2.033281-.242984-3.015473h-37.224024Z"/>
    <ellipse class="cls-7" cx="75.897736" cy="36.344674" rx="18.701427" ry="1.286525"/>
  </g>
  <g>
    <circle class="cls-8" cx="75.368646" cy="18.172337" r="18.172337"/>
    <circle class="cls-6" cx="82.440199" cy="10.833154" r="5.406692"/>
  </g>
</svg>